<svg width="35" height="35" viewBox="0 0 35 35" fill="none" xmlns="http://www.w3.org/2000/svg">
<path d="M32.0394 26.7311C32.0394 27.2561 31.9228 27.7957 31.6748 28.3207C31.4269 28.8457 31.1061 29.3415 30.6832 29.8082C29.9686 30.5957 29.1811 31.1644 28.2915 31.529C27.4165 31.8936 26.4686 32.0832 25.4478 32.0832C23.9603 32.0832 22.3707 31.7332 20.6936 31.0186C19.0165 30.304 17.3394 29.3415 15.6769 28.1311C13.9998 26.9061 12.4103 25.5498 10.8936 24.0478C9.3915 22.5311 8.03525 20.9415 6.82484 19.279C5.629 17.6165 4.6665 15.954 3.9665 14.3061C3.2665 12.6436 2.9165 11.054 2.9165 9.53734C2.9165 8.54567 3.0915 7.59775 3.4415 6.72275C3.7915 5.83317 4.34567 5.0165 5.11859 4.28734C6.05192 3.36859 7.07275 2.9165 8.15192 2.9165C8.56025 2.9165 8.96859 3.004 9.33317 3.179C9.71234 3.354 10.0478 3.6165 10.3103 3.99567L13.6936 8.76442C13.9561 9.129 14.1457 9.46442 14.2769 9.78525C14.4082 10.0915 14.4811 10.3978 14.4811 10.6748C14.4811 11.0248 14.379 11.3748 14.1748 11.7103C13.9853 12.0457 13.7082 12.3957 13.3582 12.7457L12.2498 13.8978C12.0894 14.0582 12.0165 14.2478 12.0165 14.4811C12.0165 14.5978 12.0311 14.6998 12.0603 14.8165C12.104 14.9332 12.1478 15.0207 12.1769 15.1082C12.4394 15.5894 12.8915 16.2165 13.5332 16.9748C14.1894 17.7332 14.8894 18.5061 15.6478 19.279C16.4353 20.0519 17.1936 20.7665 17.9665 21.4228C18.7248 22.0644 19.3519 22.5019 19.8478 22.7644C19.9207 22.7936 20.0082 22.8373 20.1103 22.8811C20.2269 22.9248 20.3436 22.9394 20.4748 22.9394C20.7228 22.9394 20.9123 22.8519 21.0728 22.6915L22.1811 21.5978C22.5457 21.2332 22.8957 20.9561 23.2311 20.7811C23.5665 20.5769 23.9019 20.4748 24.2665 20.4748C24.5436 20.4748 24.8353 20.5332 25.1561 20.6644C25.4769 20.7957 25.8123 20.9853 26.1769 21.2332L31.004 24.6603C31.3832 24.9228 31.6457 25.229 31.8061 25.5936C31.9519 25.9582 32.0394 26.3228 32.0394 26.7311Z" stroke="#272ECB" stroke-width="1.5" stroke-miterlimit="10"/>
</svg>
